<mxfile host="Electron" modified="2023-10-19T05:03:14.608Z" agent="Mozilla/5.0 (Windows NT 10.0; Win64; x64) AppleWebKit/537.36 (KHTML, like Gecko) draw.io/21.7.5 Chrome/114.0.5735.289 Electron/25.8.1 Safari/537.36" etag="ZlX85FUMyHPZyQp4Q8ZH" version="21.7.5" type="device">
  <diagram id="C5RBs43oDa-KdzZeNtuy" name="Page-1">
    <mxGraphModel dx="2327" dy="911" grid="1" gridSize="10" guides="1" tooltips="1" connect="1" arrows="1" fold="1" page="1" pageScale="1" pageWidth="827" pageHeight="1169" math="0" shadow="0">
      <root>
        <mxCell id="WIyWlLk6GJQsqaUBKTNV-0" />
        <mxCell id="WIyWlLk6GJQsqaUBKTNV-1" parent="WIyWlLk6GJQsqaUBKTNV-0" />
        <mxCell id="FdHErdlCs96QnjfLd0MZ-0" value="&amp;lt;&amp;lt;abstract&amp;gt;&amp;gt;&lt;br&gt;CharacterController" style="swimlane;fontStyle=1;align=center;verticalAlign=top;childLayout=stackLayout;horizontal=1;startSize=40;horizontalStack=0;resizeParent=1;resizeParentMax=0;resizeLast=0;collapsible=1;marginBottom=0;whiteSpace=wrap;html=1;" parent="WIyWlLk6GJQsqaUBKTNV-1" vertex="1">
          <mxGeometry x="350" y="640" width="230" height="268" as="geometry" />
        </mxCell>
        <mxCell id="FdHErdlCs96QnjfLd0MZ-5" value="Update" style="rounded=0;whiteSpace=wrap;html=1;fillColor=#dae8fc;strokeColor=#6c8ebf;" parent="FdHErdlCs96QnjfLd0MZ-0" vertex="1">
          <mxGeometry y="40" width="230" height="20" as="geometry" />
        </mxCell>
        <mxCell id="FdHErdlCs96QnjfLd0MZ-7" value="FixedUpdate" style="rounded=0;whiteSpace=wrap;html=1;fillColor=#e1d5e7;strokeColor=#9673a6;" parent="FdHErdlCs96QnjfLd0MZ-0" vertex="1">
          <mxGeometry y="60" width="230" height="20" as="geometry" />
        </mxCell>
        <mxCell id="FdHErdlCs96QnjfLd0MZ-1" value="{+get} horizontal : float" style="text;strokeColor=none;fillColor=none;align=left;verticalAlign=top;spacingLeft=4;spacingRight=4;overflow=hidden;rotatable=0;points=[[0,0.5],[1,0.5]];portConstraint=eastwest;whiteSpace=wrap;html=1;" parent="FdHErdlCs96QnjfLd0MZ-0" vertex="1">
          <mxGeometry y="80" width="230" height="26" as="geometry" />
        </mxCell>
        <mxCell id="FdHErdlCs96QnjfLd0MZ-4" value="{+get} vertical : float" style="text;strokeColor=none;fillColor=none;align=left;verticalAlign=top;spacingLeft=4;spacingRight=4;overflow=hidden;rotatable=0;points=[[0,0.5],[1,0.5]];portConstraint=eastwest;whiteSpace=wrap;html=1;" parent="FdHErdlCs96QnjfLd0MZ-0" vertex="1">
          <mxGeometry y="106" width="230" height="25" as="geometry" />
        </mxCell>
        <mxCell id="FdHErdlCs96QnjfLd0MZ-19" value="{+get, +set} direction : int" style="text;strokeColor=none;fillColor=none;align=left;verticalAlign=top;spacingLeft=4;spacingRight=4;overflow=hidden;rotatable=0;points=[[0,0.5],[1,0.5]];portConstraint=eastwest;whiteSpace=wrap;html=1;" parent="FdHErdlCs96QnjfLd0MZ-0" vertex="1">
          <mxGeometry y="131" width="230" height="25" as="geometry" />
        </mxCell>
        <mxCell id="FdHErdlCs96QnjfLd0MZ-8" value="+ isMovable : bool" style="text;align=left;verticalAlign=top;spacingLeft=4;spacingRight=4;overflow=hidden;rotatable=0;points=[[0,0.5],[1,0.5]];portConstraint=eastwest;whiteSpace=wrap;html=1;" parent="FdHErdlCs96QnjfLd0MZ-0" vertex="1">
          <mxGeometry y="156" width="230" height="26" as="geometry" />
        </mxCell>
        <mxCell id="FdHErdlCs96QnjfLd0MZ-9" value="+ move : Vector2" style="text;align=left;verticalAlign=top;spacingLeft=4;spacingRight=4;overflow=hidden;rotatable=0;points=[[0,0.5],[1,0.5]];portConstraint=eastwest;whiteSpace=wrap;html=1;" parent="FdHErdlCs96QnjfLd0MZ-0" vertex="1">
          <mxGeometry y="182" width="230" height="26" as="geometry" />
        </mxCell>
        <mxCell id="FdHErdlCs96QnjfLd0MZ-82" value="# machine : StateMachine&amp;lt;StateID&amp;gt;" style="text;align=left;verticalAlign=top;spacingLeft=4;spacingRight=4;overflow=hidden;rotatable=0;points=[[0,0.5],[1,0.5]];portConstraint=eastwest;whiteSpace=wrap;html=1;" parent="FdHErdlCs96QnjfLd0MZ-0" vertex="1">
          <mxGeometry y="208" width="230" height="26" as="geometry" />
        </mxCell>
        <mxCell id="FdHErdlCs96QnjfLd0MZ-2" value="" style="line;strokeWidth=1;fillColor=none;align=left;verticalAlign=middle;spacingTop=-1;spacingLeft=3;spacingRight=3;rotatable=0;labelPosition=right;points=[];portConstraint=eastwest;strokeColor=inherit;" parent="FdHErdlCs96QnjfLd0MZ-0" vertex="1">
          <mxGeometry y="234" width="230" height="8" as="geometry" />
        </mxCell>
        <mxCell id="FdHErdlCs96QnjfLd0MZ-3" value="- Move() : void" style="text;align=left;verticalAlign=top;spacingLeft=4;spacingRight=4;overflow=hidden;rotatable=0;points=[[0,0.5],[1,0.5]];portConstraint=eastwest;whiteSpace=wrap;html=1;" parent="FdHErdlCs96QnjfLd0MZ-0" vertex="1">
          <mxGeometry y="242" width="230" height="26" as="geometry" />
        </mxCell>
        <mxCell id="FdHErdlCs96QnjfLd0MZ-6" value="LateUpdate" style="rounded=0;whiteSpace=wrap;html=1;fillColor=#ffe6cc;strokeColor=#d79b00;" parent="WIyWlLk6GJQsqaUBKTNV-1" vertex="1">
          <mxGeometry x="-110" y="40" width="80" height="20" as="geometry" />
        </mxCell>
        <mxCell id="FdHErdlCs96QnjfLd0MZ-10" value="PlayerController" style="swimlane;fontStyle=1;align=center;verticalAlign=top;childLayout=stackLayout;horizontal=1;startSize=26;horizontalStack=0;resizeParent=1;resizeParentMax=0;resizeLast=0;collapsible=1;marginBottom=0;whiteSpace=wrap;html=1;" parent="WIyWlLk6GJQsqaUBKTNV-1" vertex="1">
          <mxGeometry x="150" y="659" width="160" height="34" as="geometry" />
        </mxCell>
        <mxCell id="FdHErdlCs96QnjfLd0MZ-12" value="" style="line;strokeWidth=1;fillColor=none;align=left;verticalAlign=middle;spacingTop=-1;spacingLeft=3;spacingRight=3;rotatable=0;labelPosition=right;points=[];portConstraint=eastwest;strokeColor=inherit;" parent="FdHErdlCs96QnjfLd0MZ-10" vertex="1">
          <mxGeometry y="26" width="160" height="8" as="geometry" />
        </mxCell>
        <mxCell id="FdHErdlCs96QnjfLd0MZ-14" value="EnemyController" style="swimlane;fontStyle=1;align=center;verticalAlign=top;childLayout=stackLayout;horizontal=1;startSize=26;horizontalStack=0;resizeParent=1;resizeParentMax=0;resizeLast=0;collapsible=1;marginBottom=0;whiteSpace=wrap;html=1;" parent="WIyWlLk6GJQsqaUBKTNV-1" vertex="1">
          <mxGeometry x="150" y="754" width="160" height="34" as="geometry" />
        </mxCell>
        <mxCell id="FdHErdlCs96QnjfLd0MZ-15" value="" style="line;strokeWidth=1;fillColor=none;align=left;verticalAlign=middle;spacingTop=-1;spacingLeft=3;spacingRight=3;rotatable=0;labelPosition=right;points=[];portConstraint=eastwest;strokeColor=inherit;" parent="FdHErdlCs96QnjfLd0MZ-14" vertex="1">
          <mxGeometry y="26" width="160" height="8" as="geometry" />
        </mxCell>
        <mxCell id="FdHErdlCs96QnjfLd0MZ-16" value="" style="endArrow=block;endSize=16;endFill=0;html=1;rounded=0;" parent="WIyWlLk6GJQsqaUBKTNV-1" source="FdHErdlCs96QnjfLd0MZ-10" target="FdHErdlCs96QnjfLd0MZ-0" edge="1">
          <mxGeometry width="160" relative="1" as="geometry">
            <mxPoint x="480" y="449" as="sourcePoint" />
            <mxPoint x="640" y="449" as="targetPoint" />
          </mxGeometry>
        </mxCell>
        <mxCell id="FdHErdlCs96QnjfLd0MZ-17" value="" style="endArrow=block;endSize=16;endFill=0;html=1;rounded=0;" parent="WIyWlLk6GJQsqaUBKTNV-1" source="FdHErdlCs96QnjfLd0MZ-14" target="FdHErdlCs96QnjfLd0MZ-0" edge="1">
          <mxGeometry width="160" relative="1" as="geometry">
            <mxPoint x="502" y="223" as="sourcePoint" />
            <mxPoint x="330" y="274" as="targetPoint" />
          </mxGeometry>
        </mxCell>
        <mxCell id="FdHErdlCs96QnjfLd0MZ-20" value="FSM" style="html=1;whiteSpace=wrap;fillColor=#dae8fc;strokeColor=#6c8ebf;" parent="WIyWlLk6GJQsqaUBKTNV-1" vertex="1">
          <mxGeometry x="630" y="10" width="110" height="50" as="geometry" />
        </mxCell>
        <mxCell id="FdHErdlCs96QnjfLd0MZ-21" value="유한 상태 기계 (Finite State Machine)&lt;br&gt;기계 : 정해진 동작을 반복 수행하는 것&lt;br&gt;상태 기계 : 특정 상태마다 정해진 특정 동작을 반복 수행하는 것" style="text;html=1;strokeColor=none;fillColor=none;align=center;verticalAlign=middle;whiteSpace=wrap;rounded=0;" parent="WIyWlLk6GJQsqaUBKTNV-1" vertex="1">
          <mxGeometry x="750" y="10" width="380" height="50" as="geometry" />
        </mxCell>
        <mxCell id="FdHErdlCs96QnjfLd0MZ-30" style="edgeStyle=orthogonalEdgeStyle;rounded=0;orthogonalLoop=1;jettySize=auto;html=1;entryX=0.5;entryY=0;entryDx=0;entryDy=0;" parent="WIyWlLk6GJQsqaUBKTNV-1" source="FdHErdlCs96QnjfLd0MZ-22" target="FdHErdlCs96QnjfLd0MZ-23" edge="1">
          <mxGeometry relative="1" as="geometry">
            <Array as="points">
              <mxPoint x="890" y="180" />
              <mxPoint x="664" y="180" />
            </Array>
          </mxGeometry>
        </mxCell>
        <mxCell id="FdHErdlCs96QnjfLd0MZ-22" value="Machine" style="rounded=0;whiteSpace=wrap;html=1;" parent="WIyWlLk6GJQsqaUBKTNV-1" vertex="1">
          <mxGeometry x="800" y="100" width="180" height="50" as="geometry" />
        </mxCell>
        <mxCell id="FdHErdlCs96QnjfLd0MZ-23" value="Idle" style="rounded=0;whiteSpace=wrap;html=1;" parent="WIyWlLk6GJQsqaUBKTNV-1" vertex="1">
          <mxGeometry x="622.5" y="230" width="83" height="40" as="geometry" />
        </mxCell>
        <mxCell id="FdHErdlCs96QnjfLd0MZ-24" value="Move" style="rounded=0;whiteSpace=wrap;html=1;" parent="WIyWlLk6GJQsqaUBKTNV-1" vertex="1">
          <mxGeometry x="735.5" y="230" width="83" height="40" as="geometry" />
        </mxCell>
        <mxCell id="FdHErdlCs96QnjfLd0MZ-25" value="Jump" style="rounded=0;whiteSpace=wrap;html=1;" parent="WIyWlLk6GJQsqaUBKTNV-1" vertex="1">
          <mxGeometry x="845.5" y="230" width="83" height="40" as="geometry" />
        </mxCell>
        <mxCell id="FdHErdlCs96QnjfLd0MZ-26" value="Fall" style="rounded=0;whiteSpace=wrap;html=1;" parent="WIyWlLk6GJQsqaUBKTNV-1" vertex="1">
          <mxGeometry x="955.5" y="230" width="83" height="40" as="geometry" />
        </mxCell>
        <mxCell id="FdHErdlCs96QnjfLd0MZ-27" value="Attack" style="rounded=0;whiteSpace=wrap;html=1;" parent="WIyWlLk6GJQsqaUBKTNV-1" vertex="1">
          <mxGeometry x="1065.5" y="230" width="83" height="40" as="geometry" />
        </mxCell>
        <mxCell id="FdHErdlCs96QnjfLd0MZ-28" value="Crouch" style="rounded=0;whiteSpace=wrap;html=1;" parent="WIyWlLk6GJQsqaUBKTNV-1" vertex="1">
          <mxGeometry x="1174.5" y="230" width="83" height="40" as="geometry" />
        </mxCell>
        <mxCell id="FdHErdlCs96QnjfLd0MZ-29" value="1. Idle 애니메이션 재생&lt;br&gt;2. if (ground.NotDetected)&lt;br&gt;return FallID&lt;br&gt;&lt;br&gt;if (Abs( controller.horizontal )&amp;gt; 0)&lt;br&gt;return MoveID" style="rounded=0;whiteSpace=wrap;html=1;" parent="WIyWlLk6GJQsqaUBKTNV-1" vertex="1">
          <mxGeometry x="610" y="270" width="110" height="160" as="geometry" />
        </mxCell>
        <mxCell id="FdHErdlCs96QnjfLd0MZ-31" value="" style="endArrow=classic;html=1;rounded=0;exitX=0.75;exitY=0;exitDx=0;exitDy=0;entryX=0.75;entryY=1;entryDx=0;entryDy=0;dashed=1;dashPattern=1 1;" parent="WIyWlLk6GJQsqaUBKTNV-1" source="FdHErdlCs96QnjfLd0MZ-23" target="FdHErdlCs96QnjfLd0MZ-22" edge="1">
          <mxGeometry width="50" height="50" relative="1" as="geometry">
            <mxPoint x="980" y="330" as="sourcePoint" />
            <mxPoint x="1030" y="280" as="targetPoint" />
            <Array as="points">
              <mxPoint x="685" y="200" />
              <mxPoint x="935" y="200" />
            </Array>
          </mxGeometry>
        </mxCell>
        <mxCell id="FdHErdlCs96QnjfLd0MZ-32" value="Next&lt;br&gt;: Fall ID" style="text;html=1;strokeColor=none;fillColor=none;align=center;verticalAlign=middle;whiteSpace=wrap;rounded=0;" parent="WIyWlLk6GJQsqaUBKTNV-1" vertex="1">
          <mxGeometry x="758.5" y="190" width="60" height="30" as="geometry" />
        </mxCell>
        <mxCell id="FdHErdlCs96QnjfLd0MZ-33" value="1. Fall 애니메이션재생&lt;br&gt;2. if (ground.Detected)&lt;br&gt;return Idle ID" style="rounded=0;whiteSpace=wrap;html=1;" parent="WIyWlLk6GJQsqaUBKTNV-1" vertex="1">
          <mxGeometry x="942" y="270" width="110" height="160" as="geometry" />
        </mxCell>
        <mxCell id="FdHErdlCs96QnjfLd0MZ-34" value="1. Move 애니메이션 재생&lt;br&gt;2. if (ground.NotDetected)&lt;br&gt;return FallID&lt;br&gt;&lt;br&gt;if (controller.horizontal == 0)&lt;br&gt;return Idle ID" style="rounded=0;whiteSpace=wrap;html=1;" parent="WIyWlLk6GJQsqaUBKTNV-1" vertex="1">
          <mxGeometry x="722" y="270" width="110" height="160" as="geometry" />
        </mxCell>
        <mxCell id="FdHErdlCs96QnjfLd0MZ-35" value="1. Jump 애니메이션 재생&lt;br&gt;velocity.y = 0&lt;br&gt;AddForce(Up)&lt;br&gt;&lt;br&gt;2. if (velocity.y &amp;lt;= 0)&lt;br&gt;return Fall ID" style="rounded=0;whiteSpace=wrap;html=1;" parent="WIyWlLk6GJQsqaUBKTNV-1" vertex="1">
          <mxGeometry x="832" y="270" width="110" height="160" as="geometry" />
        </mxCell>
        <mxCell id="FdHErdlCs96QnjfLd0MZ-36" value="1. Attack 애니메이션 재생&lt;br&gt;2. if (애니메이션끝 ?)&lt;br&gt;return Idle ID&lt;br&gt;" style="rounded=0;whiteSpace=wrap;html=1;" parent="WIyWlLk6GJQsqaUBKTNV-1" vertex="1">
          <mxGeometry x="1052" y="270" width="110" height="160" as="geometry" />
        </mxCell>
        <mxCell id="FdHErdlCs96QnjfLd0MZ-37" value="1. CrouchStart 애니메이션 재생&lt;br&gt;Collider 줄임&lt;br&gt;2. if (CrouchStart애니메이션 끝?)&lt;br&gt;CrouchIdle 애니메이션 재생&lt;br&gt;3. 할거없음" style="rounded=0;whiteSpace=wrap;html=1;" parent="WIyWlLk6GJQsqaUBKTNV-1" vertex="1">
          <mxGeometry x="1161" y="270" width="110" height="160" as="geometry" />
        </mxCell>
        <mxCell id="FdHErdlCs96QnjfLd0MZ-38" value="OnStateEnter" style="rounded=0;whiteSpace=wrap;html=1;" parent="WIyWlLk6GJQsqaUBKTNV-1" vertex="1">
          <mxGeometry x="490" y="270" width="100" height="40" as="geometry" />
        </mxCell>
        <mxCell id="FdHErdlCs96QnjfLd0MZ-39" value="OnStateUpdate" style="rounded=0;whiteSpace=wrap;html=1;" parent="WIyWlLk6GJQsqaUBKTNV-1" vertex="1">
          <mxGeometry x="490" y="320" width="100" height="40" as="geometry" />
        </mxCell>
        <mxCell id="FdHErdlCs96QnjfLd0MZ-40" value="OnStateExit" style="rounded=0;whiteSpace=wrap;html=1;" parent="WIyWlLk6GJQsqaUBKTNV-1" vertex="1">
          <mxGeometry x="490" y="420" width="100" height="40" as="geometry" />
        </mxCell>
        <mxCell id="FdHErdlCs96QnjfLd0MZ-41" value="OnStateFixedUpdate" style="rounded=0;whiteSpace=wrap;html=1;" parent="WIyWlLk6GJQsqaUBKTNV-1" vertex="1">
          <mxGeometry x="490" y="370" width="100" height="40" as="geometry" />
        </mxCell>
        <mxCell id="FdHErdlCs96QnjfLd0MZ-42" value="«interface»&lt;br&gt;&lt;b&gt;IState&amp;lt;T&amp;gt;&lt;br&gt;where : Enum&lt;br&gt;&lt;br&gt;{get} id : T&lt;br&gt;{get} canExecute : bool&lt;br&gt;&lt;br&gt;OnStateEnter() : void&lt;br&gt;OnStateUpdate() : T&lt;br&gt;OnStateFixedUpdate() : void&lt;br&gt;OnStateExit() : void&lt;br&gt;&lt;/b&gt;" style="html=1;whiteSpace=wrap;" parent="WIyWlLk6GJQsqaUBKTNV-1" vertex="1">
          <mxGeometry x="1048.5" y="684" width="184.5" height="180" as="geometry" />
        </mxCell>
        <mxCell id="FdHErdlCs96QnjfLd0MZ-43" value="«enum»&lt;br&gt;&lt;b&gt;StateID&lt;br&gt;&lt;br&gt;None,&lt;br&gt;Idle,&lt;br&gt;Move,&lt;br&gt;Jump,&lt;br&gt;Fall,&lt;br&gt;Attack,&lt;br&gt;Crouch&lt;br&gt;&lt;/b&gt;" style="html=1;whiteSpace=wrap;" parent="WIyWlLk6GJQsqaUBKTNV-1" vertex="1">
          <mxGeometry x="1250" y="684" width="111.5" height="185" as="geometry" />
        </mxCell>
        <mxCell id="FdHErdlCs96QnjfLd0MZ-57" style="edgeStyle=orthogonalEdgeStyle;rounded=0;orthogonalLoop=1;jettySize=auto;html=1;entryX=0.5;entryY=0;entryDx=0;entryDy=0;" parent="WIyWlLk6GJQsqaUBKTNV-1" source="FdHErdlCs96QnjfLd0MZ-44" target="FdHErdlCs96QnjfLd0MZ-53" edge="1">
          <mxGeometry relative="1" as="geometry" />
        </mxCell>
        <mxCell id="FdHErdlCs96QnjfLd0MZ-44" value="StateMachine&amp;lt;T&amp;gt;&lt;br&gt;where : Enum" style="swimlane;fontStyle=1;align=center;verticalAlign=top;childLayout=stackLayout;horizontal=1;startSize=44;horizontalStack=0;resizeParent=1;resizeParentMax=0;resizeLast=0;collapsible=1;marginBottom=0;whiteSpace=wrap;html=1;" parent="WIyWlLk6GJQsqaUBKTNV-1" vertex="1">
          <mxGeometry x="690" y="683" width="290" height="182" as="geometry" />
        </mxCell>
        <mxCell id="FdHErdlCs96QnjfLd0MZ-64" value="+ owner : CharacterController" style="text;strokeColor=none;fillColor=none;align=left;verticalAlign=top;spacingLeft=4;spacingRight=4;overflow=hidden;rotatable=0;points=[[0,0.5],[1,0.5]];portConstraint=eastwest;whiteSpace=wrap;html=1;" parent="FdHErdlCs96QnjfLd0MZ-44" vertex="1">
          <mxGeometry y="44" width="290" height="26" as="geometry" />
        </mxCell>
        <mxCell id="FdHErdlCs96QnjfLd0MZ-52" value="{get} currentID : T" style="text;strokeColor=none;fillColor=none;align=left;verticalAlign=top;spacingLeft=4;spacingRight=4;overflow=hidden;rotatable=0;points=[[0,0.5],[1,0.5]];portConstraint=eastwest;whiteSpace=wrap;html=1;" parent="FdHErdlCs96QnjfLd0MZ-44" vertex="1">
          <mxGeometry y="70" width="290" height="26" as="geometry" />
        </mxCell>
        <mxCell id="FdHErdlCs96QnjfLd0MZ-45" value="+ states : Dictionary&amp;lt;T, IState&amp;lt;T&amp;gt;&amp;gt;" style="text;strokeColor=none;fillColor=none;align=left;verticalAlign=top;spacingLeft=4;spacingRight=4;overflow=hidden;rotatable=0;points=[[0,0.5],[1,0.5]];portConstraint=eastwest;whiteSpace=wrap;html=1;" parent="FdHErdlCs96QnjfLd0MZ-44" vertex="1">
          <mxGeometry y="96" width="290" height="26" as="geometry" />
        </mxCell>
        <mxCell id="FdHErdlCs96QnjfLd0MZ-46" value="" style="line;strokeWidth=1;fillColor=none;align=left;verticalAlign=middle;spacingTop=-1;spacingLeft=3;spacingRight=3;rotatable=0;labelPosition=right;points=[];portConstraint=eastwest;strokeColor=inherit;" parent="FdHErdlCs96QnjfLd0MZ-44" vertex="1">
          <mxGeometry y="122" width="290" height="8" as="geometry" />
        </mxCell>
        <mxCell id="FdHErdlCs96QnjfLd0MZ-81" value="+ Init(setting : IDictionary&amp;lt;StateID, IState&amp;lt;StateID&amp;gt;&amp;gt;" style="text;strokeColor=none;fillColor=none;align=left;verticalAlign=top;spacingLeft=4;spacingRight=4;overflow=hidden;rotatable=0;points=[[0,0.5],[1,0.5]];portConstraint=eastwest;whiteSpace=wrap;html=1;" parent="FdHErdlCs96QnjfLd0MZ-44" vertex="1">
          <mxGeometry y="130" width="290" height="26" as="geometry" />
        </mxCell>
        <mxCell id="FdHErdlCs96QnjfLd0MZ-47" value="+ ChangeState(newState : T) : bool" style="text;strokeColor=none;fillColor=none;align=left;verticalAlign=top;spacingLeft=4;spacingRight=4;overflow=hidden;rotatable=0;points=[[0,0.5],[1,0.5]];portConstraint=eastwest;whiteSpace=wrap;html=1;" parent="FdHErdlCs96QnjfLd0MZ-44" vertex="1">
          <mxGeometry y="156" width="290" height="26" as="geometry" />
        </mxCell>
        <mxCell id="FdHErdlCs96QnjfLd0MZ-49" value="1" style="endArrow=open;html=1;endSize=12;startArrow=diamondThin;startSize=14;startFill=1;edgeStyle=orthogonalEdgeStyle;align=left;verticalAlign=bottom;rounded=0;" parent="WIyWlLk6GJQsqaUBKTNV-1" source="FdHErdlCs96QnjfLd0MZ-44" target="FdHErdlCs96QnjfLd0MZ-42" edge="1">
          <mxGeometry x="-1" y="3" relative="1" as="geometry">
            <mxPoint x="900" y="809" as="sourcePoint" />
            <mxPoint x="1060" y="809" as="targetPoint" />
          </mxGeometry>
        </mxCell>
        <mxCell id="FdHErdlCs96QnjfLd0MZ-50" value="0..n" style="text;html=1;strokeColor=none;fillColor=none;align=center;verticalAlign=middle;whiteSpace=wrap;rounded=0;" parent="WIyWlLk6GJQsqaUBKTNV-1" vertex="1">
          <mxGeometry x="1018.5" y="744" width="30" height="20" as="geometry" />
        </mxCell>
        <mxCell id="FdHErdlCs96QnjfLd0MZ-51" value="Composition : 조합&lt;br&gt;관계하는 주체가 파괴되면 참조하고있는 객체들도 모두 파괴되는 관계" style="text;html=1;strokeColor=none;fillColor=none;align=center;verticalAlign=middle;whiteSpace=wrap;rounded=0;" parent="WIyWlLk6GJQsqaUBKTNV-1" vertex="1">
          <mxGeometry x="870" y="460" width="200" height="40" as="geometry" />
        </mxCell>
        <mxCell id="FdHErdlCs96QnjfLd0MZ-80" style="edgeStyle=orthogonalEdgeStyle;rounded=0;orthogonalLoop=1;jettySize=auto;html=1;" parent="WIyWlLk6GJQsqaUBKTNV-1" source="FdHErdlCs96QnjfLd0MZ-53" target="FdHErdlCs96QnjfLd0MZ-77" edge="1">
          <mxGeometry relative="1" as="geometry">
            <Array as="points">
              <mxPoint x="835" y="1089" />
              <mxPoint x="1361" y="1089" />
            </Array>
          </mxGeometry>
        </mxCell>
        <mxCell id="FdHErdlCs96QnjfLd0MZ-53" value="&lt;u&gt;StateMachineDataSheet&lt;/u&gt;" style="swimlane;fontStyle=1;align=center;verticalAlign=top;childLayout=stackLayout;horizontal=1;startSize=26;horizontalStack=0;resizeParent=1;resizeParentMax=0;resizeLast=0;collapsible=1;marginBottom=0;whiteSpace=wrap;html=1;" parent="WIyWlLk6GJQsqaUBKTNV-1" vertex="1">
          <mxGeometry x="668.75" y="969" width="332.5" height="60" as="geometry" />
        </mxCell>
        <mxCell id="FdHErdlCs96QnjfLd0MZ-55" value="" style="line;strokeWidth=1;fillColor=none;align=left;verticalAlign=middle;spacingTop=-1;spacingLeft=3;spacingRight=3;rotatable=0;labelPosition=right;points=[];portConstraint=eastwest;strokeColor=inherit;" parent="FdHErdlCs96QnjfLd0MZ-53" vertex="1">
          <mxGeometry y="26" width="332.5" height="8" as="geometry" />
        </mxCell>
        <mxCell id="FdHErdlCs96QnjfLd0MZ-56" value="+ GetPlayerSettings() : IDictionary&amp;lt;StatID, IState&amp;lt;StateID&amp;gt;&amp;gt;" style="text;strokeColor=none;fillColor=none;align=left;verticalAlign=top;spacingLeft=4;spacingRight=4;overflow=hidden;rotatable=0;points=[[0,0.5],[1,0.5]];portConstraint=eastwest;whiteSpace=wrap;html=1;" parent="FdHErdlCs96QnjfLd0MZ-53" vertex="1">
          <mxGeometry y="34" width="332.5" height="26" as="geometry" />
        </mxCell>
        <mxCell id="FdHErdlCs96QnjfLd0MZ-58" value="StateBase" style="swimlane;fontStyle=1;align=center;verticalAlign=top;childLayout=stackLayout;horizontal=1;startSize=26;horizontalStack=0;resizeParent=1;resizeParentMax=0;resizeLast=0;collapsible=1;marginBottom=0;whiteSpace=wrap;html=1;" parent="WIyWlLk6GJQsqaUBKTNV-1" vertex="1">
          <mxGeometry x="1060.75" y="919" width="160" height="138" as="geometry" />
        </mxCell>
        <mxCell id="FdHErdlCs96QnjfLd0MZ-59" value="# machine : StateMachine" style="text;strokeColor=none;fillColor=none;align=left;verticalAlign=top;spacingLeft=4;spacingRight=4;overflow=hidden;rotatable=0;points=[[0,0.5],[1,0.5]];portConstraint=eastwest;whiteSpace=wrap;html=1;" parent="FdHErdlCs96QnjfLd0MZ-58" vertex="1">
          <mxGeometry y="26" width="160" height="26" as="geometry" />
        </mxCell>
        <mxCell id="FdHErdlCs96QnjfLd0MZ-65" value="# transform : Transform" style="text;strokeColor=none;fillColor=none;align=left;verticalAlign=top;spacingLeft=4;spacingRight=4;overflow=hidden;rotatable=0;points=[[0,0.5],[1,0.5]];portConstraint=eastwest;whiteSpace=wrap;html=1;" parent="FdHErdlCs96QnjfLd0MZ-58" vertex="1">
          <mxGeometry y="52" width="160" height="26" as="geometry" />
        </mxCell>
        <mxCell id="FdHErdlCs96QnjfLd0MZ-66" value="# rigidbody : Rigidbody2D" style="text;strokeColor=none;fillColor=none;align=left;verticalAlign=top;spacingLeft=4;spacingRight=4;overflow=hidden;rotatable=0;points=[[0,0.5],[1,0.5]];portConstraint=eastwest;whiteSpace=wrap;html=1;" parent="FdHErdlCs96QnjfLd0MZ-58" vertex="1">
          <mxGeometry y="78" width="160" height="26" as="geometry" />
        </mxCell>
        <mxCell id="FdHErdlCs96QnjfLd0MZ-67" value="# animator : Animator" style="text;strokeColor=none;fillColor=none;align=left;verticalAlign=top;spacingLeft=4;spacingRight=4;overflow=hidden;rotatable=0;points=[[0,0.5],[1,0.5]];portConstraint=eastwest;whiteSpace=wrap;html=1;" parent="FdHErdlCs96QnjfLd0MZ-58" vertex="1">
          <mxGeometry y="104" width="160" height="26" as="geometry" />
        </mxCell>
        <mxCell id="FdHErdlCs96QnjfLd0MZ-60" value="" style="line;strokeWidth=1;fillColor=none;align=left;verticalAlign=middle;spacingTop=-1;spacingLeft=3;spacingRight=3;rotatable=0;labelPosition=right;points=[];portConstraint=eastwest;strokeColor=inherit;" parent="FdHErdlCs96QnjfLd0MZ-58" vertex="1">
          <mxGeometry y="130" width="160" height="8" as="geometry" />
        </mxCell>
        <mxCell id="FdHErdlCs96QnjfLd0MZ-63" value="" style="endArrow=block;endSize=16;endFill=0;html=1;rounded=0;" parent="WIyWlLk6GJQsqaUBKTNV-1" source="FdHErdlCs96QnjfLd0MZ-58" target="FdHErdlCs96QnjfLd0MZ-42" edge="1">
          <mxGeometry width="160" relative="1" as="geometry">
            <mxPoint x="1080" y="859" as="sourcePoint" />
            <mxPoint x="1240" y="859" as="targetPoint" />
          </mxGeometry>
        </mxCell>
        <mxCell id="FdHErdlCs96QnjfLd0MZ-68" value="Idle" style="swimlane;fontStyle=1;align=center;verticalAlign=top;childLayout=stackLayout;horizontal=1;startSize=26;horizontalStack=0;resizeParent=1;resizeParentMax=0;resizeLast=0;collapsible=1;marginBottom=0;whiteSpace=wrap;html=1;" parent="WIyWlLk6GJQsqaUBKTNV-1" vertex="1">
          <mxGeometry x="1281" y="935" width="160" height="34" as="geometry" />
        </mxCell>
        <mxCell id="FdHErdlCs96QnjfLd0MZ-70" value="" style="line;strokeWidth=1;fillColor=none;align=left;verticalAlign=middle;spacingTop=-1;spacingLeft=3;spacingRight=3;rotatable=0;labelPosition=right;points=[];portConstraint=eastwest;strokeColor=inherit;" parent="FdHErdlCs96QnjfLd0MZ-68" vertex="1">
          <mxGeometry y="26" width="160" height="8" as="geometry" />
        </mxCell>
        <mxCell id="FdHErdlCs96QnjfLd0MZ-72" value="" style="endArrow=block;endSize=16;endFill=0;html=1;rounded=0;" parent="WIyWlLk6GJQsqaUBKTNV-1" source="FdHErdlCs96QnjfLd0MZ-68" target="FdHErdlCs96QnjfLd0MZ-58" edge="1">
          <mxGeometry width="160" relative="1" as="geometry">
            <mxPoint x="1151" y="929" as="sourcePoint" />
            <mxPoint x="1151" y="874" as="targetPoint" />
          </mxGeometry>
        </mxCell>
        <mxCell id="FdHErdlCs96QnjfLd0MZ-73" value="Move" style="swimlane;fontStyle=1;align=center;verticalAlign=top;childLayout=stackLayout;horizontal=1;startSize=26;horizontalStack=0;resizeParent=1;resizeParentMax=0;resizeLast=0;collapsible=1;marginBottom=0;whiteSpace=wrap;html=1;" parent="WIyWlLk6GJQsqaUBKTNV-1" vertex="1">
          <mxGeometry x="1281" y="971" width="160" height="34" as="geometry" />
        </mxCell>
        <mxCell id="FdHErdlCs96QnjfLd0MZ-74" value="" style="line;strokeWidth=1;fillColor=none;align=left;verticalAlign=middle;spacingTop=-1;spacingLeft=3;spacingRight=3;rotatable=0;labelPosition=right;points=[];portConstraint=eastwest;strokeColor=inherit;" parent="FdHErdlCs96QnjfLd0MZ-73" vertex="1">
          <mxGeometry y="26" width="160" height="8" as="geometry" />
        </mxCell>
        <mxCell id="FdHErdlCs96QnjfLd0MZ-75" value="" style="endArrow=block;endSize=16;endFill=0;html=1;rounded=0;" parent="WIyWlLk6GJQsqaUBKTNV-1" source="FdHErdlCs96QnjfLd0MZ-73" target="FdHErdlCs96QnjfLd0MZ-58" edge="1">
          <mxGeometry width="160" relative="1" as="geometry">
            <mxPoint x="1291" y="971" as="sourcePoint" />
            <mxPoint x="1231" y="983" as="targetPoint" />
          </mxGeometry>
        </mxCell>
        <mxCell id="FdHErdlCs96QnjfLd0MZ-77" value="Jump" style="swimlane;fontStyle=1;align=center;verticalAlign=top;childLayout=stackLayout;horizontal=1;startSize=26;horizontalStack=0;resizeParent=1;resizeParentMax=0;resizeLast=0;collapsible=1;marginBottom=0;whiteSpace=wrap;html=1;" parent="WIyWlLk6GJQsqaUBKTNV-1" vertex="1">
          <mxGeometry x="1281" y="1009" width="160" height="34" as="geometry" />
        </mxCell>
        <mxCell id="FdHErdlCs96QnjfLd0MZ-78" value="" style="line;strokeWidth=1;fillColor=none;align=left;verticalAlign=middle;spacingTop=-1;spacingLeft=3;spacingRight=3;rotatable=0;labelPosition=right;points=[];portConstraint=eastwest;strokeColor=inherit;" parent="FdHErdlCs96QnjfLd0MZ-77" vertex="1">
          <mxGeometry y="26" width="160" height="8" as="geometry" />
        </mxCell>
        <mxCell id="FdHErdlCs96QnjfLd0MZ-79" value="" style="endArrow=block;endSize=16;endFill=0;html=1;rounded=0;" parent="WIyWlLk6GJQsqaUBKTNV-1" source="FdHErdlCs96QnjfLd0MZ-77" target="FdHErdlCs96QnjfLd0MZ-58" edge="1">
          <mxGeometry width="160" relative="1" as="geometry">
            <mxPoint x="1291" y="998" as="sourcePoint" />
            <mxPoint x="1231" y="998" as="targetPoint" />
          </mxGeometry>
        </mxCell>
        <mxCell id="FdHErdlCs96QnjfLd0MZ-84" value="1" style="endArrow=open;html=1;endSize=12;startArrow=diamondThin;startSize=14;startFill=1;edgeStyle=orthogonalEdgeStyle;align=left;verticalAlign=bottom;rounded=0;" parent="WIyWlLk6GJQsqaUBKTNV-1" source="FdHErdlCs96QnjfLd0MZ-0" target="FdHErdlCs96QnjfLd0MZ-44" edge="1">
          <mxGeometry x="-1" y="3" relative="1" as="geometry">
            <mxPoint x="620" y="539" as="sourcePoint" />
            <mxPoint x="780" y="539" as="targetPoint" />
          </mxGeometry>
        </mxCell>
        <mxCell id="FdHErdlCs96QnjfLd0MZ-87" value="1" style="text;html=1;strokeColor=none;fillColor=none;align=center;verticalAlign=middle;whiteSpace=wrap;rounded=0;" parent="WIyWlLk6GJQsqaUBKTNV-1" vertex="1">
          <mxGeometry x="649" y="664" width="30" height="20" as="geometry" />
        </mxCell>
        <mxCell id="VH7O9ClcqVr8DYKr0TOa-3" value="Car" style="swimlane;fontStyle=1;align=center;verticalAlign=top;childLayout=stackLayout;horizontal=1;startSize=26;horizontalStack=0;resizeParent=1;resizeParentMax=0;resizeLast=0;collapsible=1;marginBottom=0;whiteSpace=wrap;html=1;" parent="WIyWlLk6GJQsqaUBKTNV-1" vertex="1">
          <mxGeometry x="1148.5" y="437" width="101.5" height="34" as="geometry" />
        </mxCell>
        <mxCell id="VH7O9ClcqVr8DYKr0TOa-5" value="" style="line;strokeWidth=1;fillColor=none;align=left;verticalAlign=middle;spacingTop=-1;spacingLeft=3;spacingRight=3;rotatable=0;labelPosition=right;points=[];portConstraint=eastwest;strokeColor=inherit;" parent="VH7O9ClcqVr8DYKr0TOa-3" vertex="1">
          <mxGeometry y="26" width="101.5" height="8" as="geometry" />
        </mxCell>
        <mxCell id="VH7O9ClcqVr8DYKr0TOa-7" value="Wheel" style="swimlane;fontStyle=1;align=center;verticalAlign=top;childLayout=stackLayout;horizontal=1;startSize=26;horizontalStack=0;resizeParent=1;resizeParentMax=0;resizeLast=0;collapsible=1;marginBottom=0;whiteSpace=wrap;html=1;" parent="WIyWlLk6GJQsqaUBKTNV-1" vertex="1">
          <mxGeometry x="1300.25" y="437" width="101.5" height="34" as="geometry" />
        </mxCell>
        <mxCell id="VH7O9ClcqVr8DYKr0TOa-8" value="" style="line;strokeWidth=1;fillColor=none;align=left;verticalAlign=middle;spacingTop=-1;spacingLeft=3;spacingRight=3;rotatable=0;labelPosition=right;points=[];portConstraint=eastwest;strokeColor=inherit;" parent="VH7O9ClcqVr8DYKr0TOa-7" vertex="1">
          <mxGeometry y="26" width="101.5" height="8" as="geometry" />
        </mxCell>
        <mxCell id="VH7O9ClcqVr8DYKr0TOa-9" value="Window" style="swimlane;fontStyle=1;align=center;verticalAlign=top;childLayout=stackLayout;horizontal=1;startSize=26;horizontalStack=0;resizeParent=1;resizeParentMax=0;resizeLast=0;collapsible=1;marginBottom=0;whiteSpace=wrap;html=1;" parent="WIyWlLk6GJQsqaUBKTNV-1" vertex="1">
          <mxGeometry x="1300.25" y="471" width="101.5" height="34" as="geometry" />
        </mxCell>
        <mxCell id="VH7O9ClcqVr8DYKr0TOa-10" value="" style="line;strokeWidth=1;fillColor=none;align=left;verticalAlign=middle;spacingTop=-1;spacingLeft=3;spacingRight=3;rotatable=0;labelPosition=right;points=[];portConstraint=eastwest;strokeColor=inherit;" parent="VH7O9ClcqVr8DYKr0TOa-9" vertex="1">
          <mxGeometry y="26" width="101.5" height="8" as="geometry" />
        </mxCell>
        <mxCell id="VH7O9ClcqVr8DYKr0TOa-13" value="1" style="endArrow=open;html=1;endSize=12;startArrow=diamondThin;startSize=14;startFill=1;edgeStyle=orthogonalEdgeStyle;align=left;verticalAlign=bottom;rounded=0;entryX=0;entryY=0.5;entryDx=0;entryDy=0;" parent="WIyWlLk6GJQsqaUBKTNV-1" source="VH7O9ClcqVr8DYKr0TOa-3" target="VH7O9ClcqVr8DYKr0TOa-7" edge="1">
          <mxGeometry x="-1" y="3" relative="1" as="geometry">
            <mxPoint x="980" y="704" as="sourcePoint" />
            <mxPoint x="1049" y="704" as="targetPoint" />
          </mxGeometry>
        </mxCell>
        <mxCell id="VH7O9ClcqVr8DYKr0TOa-14" value="4" style="text;html=1;strokeColor=none;fillColor=none;align=center;verticalAlign=middle;whiteSpace=wrap;rounded=0;" parent="WIyWlLk6GJQsqaUBKTNV-1" vertex="1">
          <mxGeometry x="1278.62" y="425" width="34.25" height="30" as="geometry" />
        </mxCell>
        <mxCell id="VH7O9ClcqVr8DYKr0TOa-15" value="1" style="endArrow=open;html=1;endSize=12;startArrow=diamondThin;startSize=14;startFill=1;edgeStyle=orthogonalEdgeStyle;align=left;verticalAlign=bottom;rounded=0;entryX=0;entryY=0.5;entryDx=0;entryDy=0;" parent="WIyWlLk6GJQsqaUBKTNV-1" source="VH7O9ClcqVr8DYKr0TOa-3" target="VH7O9ClcqVr8DYKr0TOa-9" edge="1">
          <mxGeometry x="-1" y="3" relative="1" as="geometry">
            <mxPoint x="1260" y="464" as="sourcePoint" />
            <mxPoint x="1310" y="464" as="targetPoint" />
          </mxGeometry>
        </mxCell>
        <mxCell id="VH7O9ClcqVr8DYKr0TOa-16" value="6" style="text;html=1;strokeColor=none;fillColor=none;align=center;verticalAlign=middle;whiteSpace=wrap;rounded=0;" parent="WIyWlLk6GJQsqaUBKTNV-1" vertex="1">
          <mxGeometry x="1278.62" y="460" width="34.25" height="30" as="geometry" />
        </mxCell>
        <mxCell id="VH7O9ClcqVr8DYKr0TOa-18" value="Navigation" style="swimlane;fontStyle=1;align=center;verticalAlign=top;childLayout=stackLayout;horizontal=1;startSize=26;horizontalStack=0;resizeParent=1;resizeParentMax=0;resizeLast=0;collapsible=1;marginBottom=0;whiteSpace=wrap;html=1;" parent="WIyWlLk6GJQsqaUBKTNV-1" vertex="1">
          <mxGeometry x="1300.25" y="545" width="101.5" height="34" as="geometry" />
        </mxCell>
        <mxCell id="VH7O9ClcqVr8DYKr0TOa-19" value="" style="line;strokeWidth=1;fillColor=none;align=left;verticalAlign=middle;spacingTop=-1;spacingLeft=3;spacingRight=3;rotatable=0;labelPosition=right;points=[];portConstraint=eastwest;strokeColor=inherit;" parent="VH7O9ClcqVr8DYKr0TOa-18" vertex="1">
          <mxGeometry y="26" width="101.5" height="8" as="geometry" />
        </mxCell>
        <mxCell id="VH7O9ClcqVr8DYKr0TOa-20" value="Navigator" style="swimlane;fontStyle=1;align=center;verticalAlign=top;childLayout=stackLayout;horizontal=1;startSize=26;horizontalStack=0;resizeParent=1;resizeParentMax=0;resizeLast=0;collapsible=1;marginBottom=0;whiteSpace=wrap;html=1;" parent="WIyWlLk6GJQsqaUBKTNV-1" vertex="1">
          <mxGeometry x="1300.25" y="505" width="101.5" height="34" as="geometry" />
        </mxCell>
        <mxCell id="VH7O9ClcqVr8DYKr0TOa-21" value="" style="line;strokeWidth=1;fillColor=none;align=left;verticalAlign=middle;spacingTop=-1;spacingLeft=3;spacingRight=3;rotatable=0;labelPosition=right;points=[];portConstraint=eastwest;strokeColor=inherit;" parent="VH7O9ClcqVr8DYKr0TOa-20" vertex="1">
          <mxGeometry y="26" width="101.5" height="8" as="geometry" />
        </mxCell>
        <mxCell id="VH7O9ClcqVr8DYKr0TOa-22" value="1" style="endArrow=open;html=1;endSize=12;startArrow=diamondThin;startSize=14;startFill=1;edgeStyle=orthogonalEdgeStyle;align=left;verticalAlign=bottom;rounded=0;" parent="WIyWlLk6GJQsqaUBKTNV-1" source="VH7O9ClcqVr8DYKr0TOa-3" target="VH7O9ClcqVr8DYKr0TOa-20" edge="1">
          <mxGeometry x="-1" y="3" relative="1" as="geometry">
            <mxPoint x="1260" y="464" as="sourcePoint" />
            <mxPoint x="1310" y="498" as="targetPoint" />
            <Array as="points">
              <mxPoint x="1280" y="454" />
              <mxPoint x="1280" y="522" />
            </Array>
          </mxGeometry>
        </mxCell>
        <mxCell id="VH7O9ClcqVr8DYKr0TOa-23" value="1" style="endArrow=open;html=1;endSize=12;startArrow=diamondThin;startSize=14;startFill=0;edgeStyle=orthogonalEdgeStyle;align=left;verticalAlign=bottom;rounded=0;" parent="WIyWlLk6GJQsqaUBKTNV-1" source="VH7O9ClcqVr8DYKr0TOa-3" target="VH7O9ClcqVr8DYKr0TOa-18" edge="1">
          <mxGeometry x="-1" y="3" relative="1" as="geometry">
            <mxPoint x="1200" y="560" as="sourcePoint" />
            <mxPoint x="1360" y="560" as="targetPoint" />
            <Array as="points">
              <mxPoint x="1190" y="562" />
            </Array>
          </mxGeometry>
        </mxCell>
        <mxCell id="VH7O9ClcqVr8DYKr0TOa-26" value="Car 때문에 만들었지만&amp;nbsp; &amp;nbsp;Car 가 파괴되어도 남아있음" style="text;html=1;strokeColor=#666666;fillColor=#f5f5f5;align=center;verticalAlign=middle;whiteSpace=wrap;rounded=0;fontColor=#333333;" parent="WIyWlLk6GJQsqaUBKTNV-1" vertex="1">
          <mxGeometry x="1420" y="549" width="160" height="30" as="geometry" />
        </mxCell>
        <mxCell id="VH7O9ClcqVr8DYKr0TOa-27" value="Car 의 구성원으로서 Car 가 파괴되면 같이 파괴됨" style="text;html=1;strokeColor=#666666;fillColor=#f5f5f5;align=center;verticalAlign=middle;whiteSpace=wrap;rounded=0;fontColor=#333333;" parent="WIyWlLk6GJQsqaUBKTNV-1" vertex="1">
          <mxGeometry x="1420" y="465" width="160" height="30" as="geometry" />
        </mxCell>
        <mxCell id="0PTywm3QO9VAj4Ya1w-R-0" value="&amp;lt;&amp;lt;abstract&amp;gt;&amp;gt;&lt;br&gt;CharacterController" style="swimlane;fontStyle=1;align=center;verticalAlign=top;childLayout=stackLayout;horizontal=1;startSize=40;horizontalStack=0;resizeParent=1;resizeParentMax=0;resizeLast=0;collapsible=1;marginBottom=0;whiteSpace=wrap;html=1;" vertex="1" parent="WIyWlLk6GJQsqaUBKTNV-1">
          <mxGeometry x="449" y="1169" width="230" height="268" as="geometry" />
        </mxCell>
        <mxCell id="0PTywm3QO9VAj4Ya1w-R-1" value="Update" style="rounded=0;whiteSpace=wrap;html=1;fillColor=#dae8fc;strokeColor=#6c8ebf;" vertex="1" parent="0PTywm3QO9VAj4Ya1w-R-0">
          <mxGeometry y="40" width="230" height="20" as="geometry" />
        </mxCell>
        <mxCell id="0PTywm3QO9VAj4Ya1w-R-2" value="FixedUpdate" style="rounded=0;whiteSpace=wrap;html=1;fillColor=#e1d5e7;strokeColor=#9673a6;" vertex="1" parent="0PTywm3QO9VAj4Ya1w-R-0">
          <mxGeometry y="60" width="230" height="20" as="geometry" />
        </mxCell>
        <mxCell id="0PTywm3QO9VAj4Ya1w-R-3" value="{+get} horizontal : float" style="text;strokeColor=none;fillColor=none;align=left;verticalAlign=top;spacingLeft=4;spacingRight=4;overflow=hidden;rotatable=0;points=[[0,0.5],[1,0.5]];portConstraint=eastwest;whiteSpace=wrap;html=1;" vertex="1" parent="0PTywm3QO9VAj4Ya1w-R-0">
          <mxGeometry y="80" width="230" height="26" as="geometry" />
        </mxCell>
        <mxCell id="0PTywm3QO9VAj4Ya1w-R-4" value="{+get} vertical : float" style="text;strokeColor=none;fillColor=none;align=left;verticalAlign=top;spacingLeft=4;spacingRight=4;overflow=hidden;rotatable=0;points=[[0,0.5],[1,0.5]];portConstraint=eastwest;whiteSpace=wrap;html=1;" vertex="1" parent="0PTywm3QO9VAj4Ya1w-R-0">
          <mxGeometry y="106" width="230" height="25" as="geometry" />
        </mxCell>
        <mxCell id="0PTywm3QO9VAj4Ya1w-R-5" value="{+get, +set} direction : int" style="text;strokeColor=none;fillColor=none;align=left;verticalAlign=top;spacingLeft=4;spacingRight=4;overflow=hidden;rotatable=0;points=[[0,0.5],[1,0.5]];portConstraint=eastwest;whiteSpace=wrap;html=1;" vertex="1" parent="0PTywm3QO9VAj4Ya1w-R-0">
          <mxGeometry y="131" width="230" height="25" as="geometry" />
        </mxCell>
        <mxCell id="0PTywm3QO9VAj4Ya1w-R-6" value="+ isMovable : bool" style="text;align=left;verticalAlign=top;spacingLeft=4;spacingRight=4;overflow=hidden;rotatable=0;points=[[0,0.5],[1,0.5]];portConstraint=eastwest;whiteSpace=wrap;html=1;" vertex="1" parent="0PTywm3QO9VAj4Ya1w-R-0">
          <mxGeometry y="156" width="230" height="26" as="geometry" />
        </mxCell>
        <mxCell id="0PTywm3QO9VAj4Ya1w-R-7" value="+ move : Vector2" style="text;align=left;verticalAlign=top;spacingLeft=4;spacingRight=4;overflow=hidden;rotatable=0;points=[[0,0.5],[1,0.5]];portConstraint=eastwest;whiteSpace=wrap;html=1;" vertex="1" parent="0PTywm3QO9VAj4Ya1w-R-0">
          <mxGeometry y="182" width="230" height="26" as="geometry" />
        </mxCell>
        <mxCell id="0PTywm3QO9VAj4Ya1w-R-8" value="# machine : StateMachine&amp;lt;StateID&amp;gt;" style="text;align=left;verticalAlign=top;spacingLeft=4;spacingRight=4;overflow=hidden;rotatable=0;points=[[0,0.5],[1,0.5]];portConstraint=eastwest;whiteSpace=wrap;html=1;" vertex="1" parent="0PTywm3QO9VAj4Ya1w-R-0">
          <mxGeometry y="208" width="230" height="26" as="geometry" />
        </mxCell>
        <mxCell id="0PTywm3QO9VAj4Ya1w-R-9" value="" style="line;strokeWidth=1;fillColor=none;align=left;verticalAlign=middle;spacingTop=-1;spacingLeft=3;spacingRight=3;rotatable=0;labelPosition=right;points=[];portConstraint=eastwest;strokeColor=inherit;" vertex="1" parent="0PTywm3QO9VAj4Ya1w-R-0">
          <mxGeometry y="234" width="230" height="8" as="geometry" />
        </mxCell>
        <mxCell id="0PTywm3QO9VAj4Ya1w-R-10" value="- Move() : void" style="text;align=left;verticalAlign=top;spacingLeft=4;spacingRight=4;overflow=hidden;rotatable=0;points=[[0,0.5],[1,0.5]];portConstraint=eastwest;whiteSpace=wrap;html=1;" vertex="1" parent="0PTywm3QO9VAj4Ya1w-R-0">
          <mxGeometry y="242" width="230" height="26" as="geometry" />
        </mxCell>
        <mxCell id="0PTywm3QO9VAj4Ya1w-R-11" value="PlayerController" style="swimlane;fontStyle=1;align=center;verticalAlign=top;childLayout=stackLayout;horizontal=1;startSize=26;horizontalStack=0;resizeParent=1;resizeParentMax=0;resizeLast=0;collapsible=1;marginBottom=0;whiteSpace=wrap;html=1;" vertex="1" parent="WIyWlLk6GJQsqaUBKTNV-1">
          <mxGeometry x="160" y="1340" width="160" height="34" as="geometry" />
        </mxCell>
        <mxCell id="0PTywm3QO9VAj4Ya1w-R-12" value="" style="line;strokeWidth=1;fillColor=none;align=left;verticalAlign=middle;spacingTop=-1;spacingLeft=3;spacingRight=3;rotatable=0;labelPosition=right;points=[];portConstraint=eastwest;strokeColor=inherit;" vertex="1" parent="0PTywm3QO9VAj4Ya1w-R-11">
          <mxGeometry y="26" width="160" height="8" as="geometry" />
        </mxCell>
        <mxCell id="0PTywm3QO9VAj4Ya1w-R-13" value="EnemyController" style="swimlane;fontStyle=1;align=center;verticalAlign=top;childLayout=stackLayout;horizontal=1;startSize=26;horizontalStack=0;resizeParent=1;resizeParentMax=0;resizeLast=0;collapsible=1;marginBottom=0;whiteSpace=wrap;html=1;" vertex="1" parent="WIyWlLk6GJQsqaUBKTNV-1">
          <mxGeometry x="160" y="1250" width="160" height="34" as="geometry" />
        </mxCell>
        <mxCell id="0PTywm3QO9VAj4Ya1w-R-14" value="" style="line;strokeWidth=1;fillColor=none;align=left;verticalAlign=middle;spacingTop=-1;spacingLeft=3;spacingRight=3;rotatable=0;labelPosition=right;points=[];portConstraint=eastwest;strokeColor=inherit;" vertex="1" parent="0PTywm3QO9VAj4Ya1w-R-13">
          <mxGeometry y="26" width="160" height="8" as="geometry" />
        </mxCell>
        <mxCell id="0PTywm3QO9VAj4Ya1w-R-15" value="" style="endArrow=block;endSize=16;endFill=0;html=1;rounded=0;" edge="1" parent="WIyWlLk6GJQsqaUBKTNV-1" source="0PTywm3QO9VAj4Ya1w-R-11" target="0PTywm3QO9VAj4Ya1w-R-0">
          <mxGeometry width="160" relative="1" as="geometry">
            <mxPoint x="490" y="979" as="sourcePoint" />
            <mxPoint x="650" y="979" as="targetPoint" />
          </mxGeometry>
        </mxCell>
        <mxCell id="0PTywm3QO9VAj4Ya1w-R-16" value="" style="endArrow=block;endSize=16;endFill=0;html=1;rounded=0;" edge="1" parent="WIyWlLk6GJQsqaUBKTNV-1" source="0PTywm3QO9VAj4Ya1w-R-13" target="0PTywm3QO9VAj4Ya1w-R-0">
          <mxGeometry width="160" relative="1" as="geometry">
            <mxPoint x="512" y="753" as="sourcePoint" />
            <mxPoint x="340" y="804" as="targetPoint" />
          </mxGeometry>
        </mxCell>
        <mxCell id="0PTywm3QO9VAj4Ya1w-R-17" value="«interface»&lt;br&gt;&lt;b&gt;IState&amp;lt;T&amp;gt;&lt;br&gt;where : Enum&lt;br&gt;&lt;br&gt;{get} id : T&lt;br&gt;{get} canExecute : bool&lt;br&gt;&lt;br&gt;OnStateEnter() : void&lt;br&gt;OnStateUpdate() : T&lt;br&gt;OnStateFixedUpdate() : void&lt;br&gt;OnStateExit() : void&lt;br&gt;&lt;/b&gt;" style="html=1;whiteSpace=wrap;" vertex="1" parent="WIyWlLk6GJQsqaUBKTNV-1">
          <mxGeometry x="1081.31" y="1510" width="184.5" height="180" as="geometry" />
        </mxCell>
        <mxCell id="0PTywm3QO9VAj4Ya1w-R-18" value="«enum»&lt;br&gt;&lt;b&gt;StateID&lt;br&gt;&lt;br&gt;None,&lt;br&gt;Idle,&lt;br&gt;Move,&lt;br&gt;Jump,&lt;br&gt;Fall,&lt;br&gt;Attack,&lt;br&gt;Crouch&lt;br&gt;&lt;/b&gt;" style="html=1;whiteSpace=wrap;" vertex="1" parent="WIyWlLk6GJQsqaUBKTNV-1">
          <mxGeometry x="1282.81" y="1510" width="111.5" height="185" as="geometry" />
        </mxCell>
        <mxCell id="0PTywm3QO9VAj4Ya1w-R-19" style="edgeStyle=orthogonalEdgeStyle;rounded=0;orthogonalLoop=1;jettySize=auto;html=1;entryX=0.5;entryY=0;entryDx=0;entryDy=0;" edge="1" parent="WIyWlLk6GJQsqaUBKTNV-1" source="0PTywm3QO9VAj4Ya1w-R-20" target="0PTywm3QO9VAj4Ya1w-R-30">
          <mxGeometry relative="1" as="geometry" />
        </mxCell>
        <mxCell id="0PTywm3QO9VAj4Ya1w-R-20" value="StateMachine&amp;lt;T&amp;gt;&lt;br&gt;where : Enum" style="swimlane;fontStyle=1;align=center;verticalAlign=top;childLayout=stackLayout;horizontal=1;startSize=44;horizontalStack=0;resizeParent=1;resizeParentMax=0;resizeLast=0;collapsible=1;marginBottom=0;whiteSpace=wrap;html=1;" vertex="1" parent="WIyWlLk6GJQsqaUBKTNV-1">
          <mxGeometry x="722.81" y="1522" width="290" height="156" as="geometry" />
        </mxCell>
        <mxCell id="0PTywm3QO9VAj4Ya1w-R-22" value="{get} currentID : T" style="text;strokeColor=none;fillColor=none;align=left;verticalAlign=top;spacingLeft=4;spacingRight=4;overflow=hidden;rotatable=0;points=[[0,0.5],[1,0.5]];portConstraint=eastwest;whiteSpace=wrap;html=1;" vertex="1" parent="0PTywm3QO9VAj4Ya1w-R-20">
          <mxGeometry y="44" width="290" height="26" as="geometry" />
        </mxCell>
        <mxCell id="0PTywm3QO9VAj4Ya1w-R-23" value="+ states : Dictionary&amp;lt;T, IState&amp;lt;T&amp;gt;&amp;gt;" style="text;strokeColor=none;fillColor=none;align=left;verticalAlign=top;spacingLeft=4;spacingRight=4;overflow=hidden;rotatable=0;points=[[0,0.5],[1,0.5]];portConstraint=eastwest;whiteSpace=wrap;html=1;" vertex="1" parent="0PTywm3QO9VAj4Ya1w-R-20">
          <mxGeometry y="70" width="290" height="26" as="geometry" />
        </mxCell>
        <mxCell id="0PTywm3QO9VAj4Ya1w-R-24" value="" style="line;strokeWidth=1;fillColor=none;align=left;verticalAlign=middle;spacingTop=-1;spacingLeft=3;spacingRight=3;rotatable=0;labelPosition=right;points=[];portConstraint=eastwest;strokeColor=inherit;" vertex="1" parent="0PTywm3QO9VAj4Ya1w-R-20">
          <mxGeometry y="96" width="290" height="8" as="geometry" />
        </mxCell>
        <mxCell id="0PTywm3QO9VAj4Ya1w-R-25" value="+ Init(setting : IDictionary&amp;lt;StateID, IState&amp;lt;StateID&amp;gt;&amp;gt;" style="text;strokeColor=none;fillColor=none;align=left;verticalAlign=top;spacingLeft=4;spacingRight=4;overflow=hidden;rotatable=0;points=[[0,0.5],[1,0.5]];portConstraint=eastwest;whiteSpace=wrap;html=1;" vertex="1" parent="0PTywm3QO9VAj4Ya1w-R-20">
          <mxGeometry y="104" width="290" height="26" as="geometry" />
        </mxCell>
        <mxCell id="0PTywm3QO9VAj4Ya1w-R-26" value="+ ChangeState(newState : T) : bool" style="text;strokeColor=none;fillColor=none;align=left;verticalAlign=top;spacingLeft=4;spacingRight=4;overflow=hidden;rotatable=0;points=[[0,0.5],[1,0.5]];portConstraint=eastwest;whiteSpace=wrap;html=1;" vertex="1" parent="0PTywm3QO9VAj4Ya1w-R-20">
          <mxGeometry y="130" width="290" height="26" as="geometry" />
        </mxCell>
        <mxCell id="0PTywm3QO9VAj4Ya1w-R-27" value="1" style="endArrow=open;html=1;endSize=12;startArrow=diamondThin;startSize=14;startFill=1;edgeStyle=orthogonalEdgeStyle;align=left;verticalAlign=bottom;rounded=0;" edge="1" parent="WIyWlLk6GJQsqaUBKTNV-1" source="0PTywm3QO9VAj4Ya1w-R-20" target="0PTywm3QO9VAj4Ya1w-R-17">
          <mxGeometry x="-1" y="3" relative="1" as="geometry">
            <mxPoint x="932.81" y="1635" as="sourcePoint" />
            <mxPoint x="1092.81" y="1635" as="targetPoint" />
          </mxGeometry>
        </mxCell>
        <mxCell id="0PTywm3QO9VAj4Ya1w-R-28" value="0..n" style="text;html=1;strokeColor=none;fillColor=none;align=center;verticalAlign=middle;whiteSpace=wrap;rounded=0;" vertex="1" parent="WIyWlLk6GJQsqaUBKTNV-1">
          <mxGeometry x="1051.31" y="1570" width="30" height="20" as="geometry" />
        </mxCell>
        <mxCell id="0PTywm3QO9VAj4Ya1w-R-73" style="edgeStyle=orthogonalEdgeStyle;rounded=0;orthogonalLoop=1;jettySize=auto;html=1;" edge="1" parent="WIyWlLk6GJQsqaUBKTNV-1" source="0PTywm3QO9VAj4Ya1w-R-30" target="0PTywm3QO9VAj4Ya1w-R-43">
          <mxGeometry relative="1" as="geometry">
            <Array as="points">
              <mxPoint x="867.81" y="2096" />
              <mxPoint x="1430.81" y="2096" />
            </Array>
          </mxGeometry>
        </mxCell>
        <mxCell id="0PTywm3QO9VAj4Ya1w-R-30" value="&lt;u&gt;StateMachineDataSheet&lt;/u&gt;" style="swimlane;fontStyle=1;align=center;verticalAlign=top;childLayout=stackLayout;horizontal=1;startSize=26;horizontalStack=0;resizeParent=1;resizeParentMax=0;resizeLast=0;collapsible=1;marginBottom=0;whiteSpace=wrap;html=1;" vertex="1" parent="WIyWlLk6GJQsqaUBKTNV-1">
          <mxGeometry x="701.56" y="1795" width="332.5" height="60" as="geometry" />
        </mxCell>
        <mxCell id="0PTywm3QO9VAj4Ya1w-R-31" value="" style="line;strokeWidth=1;fillColor=none;align=left;verticalAlign=middle;spacingTop=-1;spacingLeft=3;spacingRight=3;rotatable=0;labelPosition=right;points=[];portConstraint=eastwest;strokeColor=inherit;" vertex="1" parent="0PTywm3QO9VAj4Ya1w-R-30">
          <mxGeometry y="26" width="332.5" height="8" as="geometry" />
        </mxCell>
        <mxCell id="0PTywm3QO9VAj4Ya1w-R-32" value="+ GetPlayerSettings() : IDictionary&amp;lt;StatID, IState&amp;lt;StateID&amp;gt;&amp;gt;" style="text;strokeColor=none;fillColor=none;align=left;verticalAlign=top;spacingLeft=4;spacingRight=4;overflow=hidden;rotatable=0;points=[[0,0.5],[1,0.5]];portConstraint=eastwest;whiteSpace=wrap;html=1;" vertex="1" parent="0PTywm3QO9VAj4Ya1w-R-30">
          <mxGeometry y="34" width="332.5" height="26" as="geometry" />
        </mxCell>
        <mxCell id="0PTywm3QO9VAj4Ya1w-R-33" value="StateBase&amp;lt;T&amp;gt;" style="swimlane;fontStyle=1;align=center;verticalAlign=top;childLayout=stackLayout;horizontal=1;startSize=26;horizontalStack=0;resizeParent=1;resizeParentMax=0;resizeLast=0;collapsible=1;marginBottom=0;whiteSpace=wrap;html=1;" vertex="1" parent="WIyWlLk6GJQsqaUBKTNV-1">
          <mxGeometry x="1093.56" y="1745" width="160" height="34" as="geometry" />
        </mxCell>
        <mxCell id="0PTywm3QO9VAj4Ya1w-R-38" value="" style="line;strokeWidth=1;fillColor=none;align=left;verticalAlign=middle;spacingTop=-1;spacingLeft=3;spacingRight=3;rotatable=0;labelPosition=right;points=[];portConstraint=eastwest;strokeColor=inherit;" vertex="1" parent="0PTywm3QO9VAj4Ya1w-R-33">
          <mxGeometry y="26" width="160" height="8" as="geometry" />
        </mxCell>
        <mxCell id="0PTywm3QO9VAj4Ya1w-R-39" value="" style="endArrow=block;endSize=16;endFill=0;html=1;rounded=0;" edge="1" parent="WIyWlLk6GJQsqaUBKTNV-1" source="0PTywm3QO9VAj4Ya1w-R-33" target="0PTywm3QO9VAj4Ya1w-R-17">
          <mxGeometry width="160" relative="1" as="geometry">
            <mxPoint x="1112.81" y="1685" as="sourcePoint" />
            <mxPoint x="1272.81" y="1685" as="targetPoint" />
          </mxGeometry>
        </mxCell>
        <mxCell id="0PTywm3QO9VAj4Ya1w-R-40" value="Idle" style="swimlane;fontStyle=1;align=center;verticalAlign=top;childLayout=stackLayout;horizontal=1;startSize=26;horizontalStack=0;resizeParent=1;resizeParentMax=0;resizeLast=0;collapsible=1;marginBottom=0;whiteSpace=wrap;html=1;" vertex="1" parent="WIyWlLk6GJQsqaUBKTNV-1">
          <mxGeometry x="1351.1799999999998" y="1857" width="160" height="34" as="geometry" />
        </mxCell>
        <mxCell id="0PTywm3QO9VAj4Ya1w-R-41" value="" style="line;strokeWidth=1;fillColor=none;align=left;verticalAlign=middle;spacingTop=-1;spacingLeft=3;spacingRight=3;rotatable=0;labelPosition=right;points=[];portConstraint=eastwest;strokeColor=inherit;" vertex="1" parent="0PTywm3QO9VAj4Ya1w-R-40">
          <mxGeometry y="26" width="160" height="8" as="geometry" />
        </mxCell>
        <mxCell id="0PTywm3QO9VAj4Ya1w-R-43" value="Move" style="swimlane;fontStyle=1;align=center;verticalAlign=top;childLayout=stackLayout;horizontal=1;startSize=26;horizontalStack=0;resizeParent=1;resizeParentMax=0;resizeLast=0;collapsible=1;marginBottom=0;whiteSpace=wrap;html=1;" vertex="1" parent="WIyWlLk6GJQsqaUBKTNV-1">
          <mxGeometry x="1351.1799999999998" y="1893" width="160" height="34" as="geometry" />
        </mxCell>
        <mxCell id="0PTywm3QO9VAj4Ya1w-R-44" value="" style="line;strokeWidth=1;fillColor=none;align=left;verticalAlign=middle;spacingTop=-1;spacingLeft=3;spacingRight=3;rotatable=0;labelPosition=right;points=[];portConstraint=eastwest;strokeColor=inherit;" vertex="1" parent="0PTywm3QO9VAj4Ya1w-R-43">
          <mxGeometry y="26" width="160" height="8" as="geometry" />
        </mxCell>
        <mxCell id="0PTywm3QO9VAj4Ya1w-R-50" value="1" style="text;html=1;strokeColor=none;fillColor=none;align=center;verticalAlign=middle;whiteSpace=wrap;rounded=0;" vertex="1" parent="WIyWlLk6GJQsqaUBKTNV-1">
          <mxGeometry x="669" y="1244" width="30" height="20" as="geometry" />
        </mxCell>
        <mxCell id="0PTywm3QO9VAj4Ya1w-R-51" value="CharacterStateBase" style="swimlane;fontStyle=1;align=center;verticalAlign=top;childLayout=stackLayout;horizontal=1;startSize=26;horizontalStack=0;resizeParent=1;resizeParentMax=0;resizeLast=0;collapsible=1;marginBottom=0;whiteSpace=wrap;html=1;" vertex="1" parent="WIyWlLk6GJQsqaUBKTNV-1">
          <mxGeometry x="1078.31" y="1836" width="200.75" height="164" as="geometry" />
        </mxCell>
        <mxCell id="0PTywm3QO9VAj4Ya1w-R-52" value="# machine : CharacterMachine" style="text;strokeColor=none;fillColor=none;align=left;verticalAlign=top;spacingLeft=4;spacingRight=4;overflow=hidden;rotatable=0;points=[[0,0.5],[1,0.5]];portConstraint=eastwest;whiteSpace=wrap;html=1;" vertex="1" parent="0PTywm3QO9VAj4Ya1w-R-51">
          <mxGeometry y="26" width="200.75" height="26" as="geometry" />
        </mxCell>
        <mxCell id="0PTywm3QO9VAj4Ya1w-R-61" value="# controller : CharacterController" style="text;strokeColor=none;fillColor=none;align=left;verticalAlign=top;spacingLeft=4;spacingRight=4;overflow=hidden;rotatable=0;points=[[0,0.5],[1,0.5]];portConstraint=eastwest;whiteSpace=wrap;html=1;" vertex="1" parent="0PTywm3QO9VAj4Ya1w-R-51">
          <mxGeometry y="52" width="200.75" height="26" as="geometry" />
        </mxCell>
        <mxCell id="0PTywm3QO9VAj4Ya1w-R-53" value="# transform : Transform" style="text;strokeColor=none;fillColor=none;align=left;verticalAlign=top;spacingLeft=4;spacingRight=4;overflow=hidden;rotatable=0;points=[[0,0.5],[1,0.5]];portConstraint=eastwest;whiteSpace=wrap;html=1;" vertex="1" parent="0PTywm3QO9VAj4Ya1w-R-51">
          <mxGeometry y="78" width="200.75" height="26" as="geometry" />
        </mxCell>
        <mxCell id="0PTywm3QO9VAj4Ya1w-R-54" value="# rigidbody : Rigidbody2D" style="text;strokeColor=none;fillColor=none;align=left;verticalAlign=top;spacingLeft=4;spacingRight=4;overflow=hidden;rotatable=0;points=[[0,0.5],[1,0.5]];portConstraint=eastwest;whiteSpace=wrap;html=1;" vertex="1" parent="0PTywm3QO9VAj4Ya1w-R-51">
          <mxGeometry y="104" width="200.75" height="26" as="geometry" />
        </mxCell>
        <mxCell id="0PTywm3QO9VAj4Ya1w-R-55" value="# animator : Animator" style="text;strokeColor=none;fillColor=none;align=left;verticalAlign=top;spacingLeft=4;spacingRight=4;overflow=hidden;rotatable=0;points=[[0,0.5],[1,0.5]];portConstraint=eastwest;whiteSpace=wrap;html=1;" vertex="1" parent="0PTywm3QO9VAj4Ya1w-R-51">
          <mxGeometry y="130" width="200.75" height="26" as="geometry" />
        </mxCell>
        <mxCell id="0PTywm3QO9VAj4Ya1w-R-56" value="" style="line;strokeWidth=1;fillColor=none;align=left;verticalAlign=middle;spacingTop=-1;spacingLeft=3;spacingRight=3;rotatable=0;labelPosition=right;points=[];portConstraint=eastwest;strokeColor=inherit;" vertex="1" parent="0PTywm3QO9VAj4Ya1w-R-51">
          <mxGeometry y="156" width="200.75" height="8" as="geometry" />
        </mxCell>
        <mxCell id="0PTywm3QO9VAj4Ya1w-R-58" value="" style="endArrow=block;endSize=16;endFill=0;html=1;rounded=0;" edge="1" parent="WIyWlLk6GJQsqaUBKTNV-1" source="0PTywm3QO9VAj4Ya1w-R-51" target="0PTywm3QO9VAj4Ya1w-R-33">
          <mxGeometry width="160" relative="1" as="geometry">
            <mxPoint x="1183.81" y="1755" as="sourcePoint" />
            <mxPoint x="1183.81" y="1700" as="targetPoint" />
          </mxGeometry>
        </mxCell>
        <mxCell id="0PTywm3QO9VAj4Ya1w-R-59" value="" style="endArrow=block;endSize=16;endFill=0;html=1;rounded=0;" edge="1" parent="WIyWlLk6GJQsqaUBKTNV-1" source="0PTywm3QO9VAj4Ya1w-R-40" target="0PTywm3QO9VAj4Ya1w-R-51">
          <mxGeometry width="160" relative="1" as="geometry">
            <mxPoint x="1209.31" y="1846" as="sourcePoint" />
            <mxPoint x="1209.31" y="1790" as="targetPoint" />
          </mxGeometry>
        </mxCell>
        <mxCell id="0PTywm3QO9VAj4Ya1w-R-60" value="" style="endArrow=block;endSize=16;endFill=0;html=1;rounded=0;" edge="1" parent="WIyWlLk6GJQsqaUBKTNV-1" source="0PTywm3QO9VAj4Ya1w-R-43" target="0PTywm3QO9VAj4Ya1w-R-51">
          <mxGeometry width="160" relative="1" as="geometry">
            <mxPoint x="1348.31" y="1889" as="sourcePoint" />
            <mxPoint x="1289.31" y="1900" as="targetPoint" />
          </mxGeometry>
        </mxCell>
        <mxCell id="0PTywm3QO9VAj4Ya1w-R-62" value="CharacterMachine" style="swimlane;fontStyle=1;align=center;verticalAlign=top;childLayout=stackLayout;horizontal=1;startSize=30;horizontalStack=0;resizeParent=1;resizeParentMax=0;resizeLast=0;collapsible=1;marginBottom=0;whiteSpace=wrap;html=1;" vertex="1" parent="WIyWlLk6GJQsqaUBKTNV-1">
          <mxGeometry x="472.81" y="1570.5" width="180" height="64" as="geometry" />
        </mxCell>
        <mxCell id="0PTywm3QO9VAj4Ya1w-R-63" value="+ owner : CharacterController" style="text;strokeColor=none;fillColor=none;align=left;verticalAlign=top;spacingLeft=4;spacingRight=4;overflow=hidden;rotatable=0;points=[[0,0.5],[1,0.5]];portConstraint=eastwest;whiteSpace=wrap;html=1;" vertex="1" parent="0PTywm3QO9VAj4Ya1w-R-62">
          <mxGeometry y="30" width="180" height="26" as="geometry" />
        </mxCell>
        <mxCell id="0PTywm3QO9VAj4Ya1w-R-65" value="" style="line;strokeWidth=1;fillColor=none;align=left;verticalAlign=middle;spacingTop=-1;spacingLeft=3;spacingRight=3;rotatable=0;labelPosition=right;points=[];portConstraint=eastwest;strokeColor=inherit;" vertex="1" parent="0PTywm3QO9VAj4Ya1w-R-62">
          <mxGeometry y="56" width="180" height="8" as="geometry" />
        </mxCell>
        <mxCell id="0PTywm3QO9VAj4Ya1w-R-68" value="" style="endArrow=block;endSize=16;endFill=0;html=1;rounded=0;" edge="1" parent="WIyWlLk6GJQsqaUBKTNV-1" source="0PTywm3QO9VAj4Ya1w-R-62" target="0PTywm3QO9VAj4Ya1w-R-20">
          <mxGeometry width="160" relative="1" as="geometry">
            <mxPoint x="1183.81" y="1755" as="sourcePoint" />
            <mxPoint x="1183.81" y="1700" as="targetPoint" />
          </mxGeometry>
        </mxCell>
        <mxCell id="0PTywm3QO9VAj4Ya1w-R-69" value="PlayerMachine" style="swimlane;fontStyle=1;align=center;verticalAlign=top;childLayout=stackLayout;horizontal=1;startSize=30;horizontalStack=0;resizeParent=1;resizeParentMax=0;resizeLast=0;collapsible=1;marginBottom=0;whiteSpace=wrap;html=1;" vertex="1" parent="WIyWlLk6GJQsqaUBKTNV-1">
          <mxGeometry x="150" y="1581" width="180" height="38" as="geometry" />
        </mxCell>
        <mxCell id="0PTywm3QO9VAj4Ya1w-R-71" value="" style="line;strokeWidth=1;fillColor=none;align=left;verticalAlign=middle;spacingTop=-1;spacingLeft=3;spacingRight=3;rotatable=0;labelPosition=right;points=[];portConstraint=eastwest;strokeColor=inherit;" vertex="1" parent="0PTywm3QO9VAj4Ya1w-R-69">
          <mxGeometry y="30" width="180" height="8" as="geometry" />
        </mxCell>
        <mxCell id="0PTywm3QO9VAj4Ya1w-R-72" value="" style="endArrow=block;endSize=16;endFill=0;html=1;rounded=0;" edge="1" parent="WIyWlLk6GJQsqaUBKTNV-1" source="0PTywm3QO9VAj4Ya1w-R-69" target="0PTywm3QO9VAj4Ya1w-R-62">
          <mxGeometry width="160" relative="1" as="geometry">
            <mxPoint x="662.81" y="1612" as="sourcePoint" />
            <mxPoint x="562.81" y="1786" as="targetPoint" />
          </mxGeometry>
        </mxCell>
        <mxCell id="0PTywm3QO9VAj4Ya1w-R-74" value="1" style="endArrow=open;html=1;endSize=12;startArrow=diamondThin;startSize=14;startFill=1;edgeStyle=orthogonalEdgeStyle;align=left;verticalAlign=bottom;rounded=0;" edge="1" parent="WIyWlLk6GJQsqaUBKTNV-1" source="0PTywm3QO9VAj4Ya1w-R-0" target="0PTywm3QO9VAj4Ya1w-R-62">
          <mxGeometry x="-1" y="3" relative="1" as="geometry">
            <mxPoint x="770" y="1520" as="sourcePoint" />
            <mxPoint x="930" y="1520" as="targetPoint" />
          </mxGeometry>
        </mxCell>
        <mxCell id="0PTywm3QO9VAj4Ya1w-R-75" value="1" style="endArrow=open;html=1;endSize=12;startArrow=diamondThin;startSize=14;startFill=1;edgeStyle=orthogonalEdgeStyle;align=left;verticalAlign=bottom;rounded=0;entryX=0.5;entryY=0;entryDx=0;entryDy=0;" edge="1" parent="WIyWlLk6GJQsqaUBKTNV-1" source="0PTywm3QO9VAj4Ya1w-R-11" target="0PTywm3QO9VAj4Ya1w-R-69">
          <mxGeometry x="-1" y="3" relative="1" as="geometry">
            <mxPoint x="485" y="1448" as="sourcePoint" />
            <mxPoint x="573" y="1581" as="targetPoint" />
          </mxGeometry>
        </mxCell>
      </root>
    </mxGraphModel>
  </diagram>
</mxfile>
